<svg width="32" height="32" viewBox="0 0 32 32" fill="none" xmlns="http://www.w3.org/2000/svg">
<path d="M21.333 9.33333C21.333 8.97971 21.4735 8.64057 21.7235 8.39052C21.9736 8.14048 22.3127 8 22.6663 8C23.02 8 23.3591 8.14048 23.6092 8.39052C23.8592 8.64057 23.9997 8.97971 23.9997 9.33333C23.9997 9.68696 23.8592 10.0261 23.6092 10.2761C23.3591 10.5262 23.02 10.6667 22.6663 10.6667C22.3127 10.6667 21.9736 10.5262 21.7235 10.2761C21.4735 10.0261 21.333 9.68696 21.333 9.33333Z" fill="#00989E"/>
<mask id="path-2-inside-1_9_84" fill="white">
<path fill-rule="evenodd" clip-rule="evenodd" d="M16.0003 9.66602C14.3206 9.66602 12.7097 10.3333 11.522 11.521C10.3343 12.7087 9.66699 14.3196 9.66699 15.9993C9.66699 17.6791 10.3343 19.29 11.522 20.4777C12.7097 21.6654 14.3206 22.3327 16.0003 22.3327C17.68 22.3327 19.2909 21.6654 20.4787 20.4777C21.6664 19.29 22.3337 17.6791 22.3337 15.9993C22.3337 14.3196 21.6664 12.7087 20.4787 11.521C19.2909 10.3333 17.68 9.66602 16.0003 9.66602ZM11.667 15.9993C11.667 14.8501 12.1235 13.7479 12.9362 12.9352C13.7489 12.1226 14.8511 11.666 16.0003 11.666C17.1496 11.666 18.2518 12.1226 19.0645 12.9352C19.8771 13.7479 20.3337 14.8501 20.3337 15.9993C20.3337 17.1486 19.8771 18.2508 19.0645 19.0635C18.2518 19.8761 17.1496 20.3327 16.0003 20.3327C14.8511 20.3327 13.7489 19.8761 12.9362 19.0635C12.1235 18.2508 11.667 17.1486 11.667 15.9993Z"/>
</mask>
<path fill-rule="evenodd" clip-rule="evenodd" d="M16.0003 9.66602C14.3206 9.66602 12.7097 10.3333 11.522 11.521C10.3343 12.7087 9.66699 14.3196 9.66699 15.9993C9.66699 17.6791 10.3343 19.29 11.522 20.4777C12.7097 21.6654 14.3206 22.3327 16.0003 22.3327C17.68 22.3327 19.2909 21.6654 20.4787 20.4777C21.6664 19.29 22.3337 17.6791 22.3337 15.9993C22.3337 14.3196 21.6664 12.7087 20.4787 11.521C19.2909 10.3333 17.68 9.66602 16.0003 9.66602ZM11.667 15.9993C11.667 14.8501 12.1235 13.7479 12.9362 12.9352C13.7489 12.1226 14.8511 11.666 16.0003 11.666C17.1496 11.666 18.2518 12.1226 19.0645 12.9352C19.8771 13.7479 20.3337 14.8501 20.3337 15.9993C20.3337 17.1486 19.8771 18.2508 19.0645 19.0635C18.2518 19.8761 17.1496 20.3327 16.0003 20.3327C14.8511 20.3327 13.7489 19.8761 12.9362 19.0635C12.1235 18.2508 11.667 17.1486 11.667 15.9993Z" fill="#00989E" stroke="#F2F6FB" stroke-width="0.8" mask="url(#path-2-inside-1_9_84)"/>
<mask id="path-3-inside-2_9_84" fill="white">
<path fill-rule="evenodd" clip-rule="evenodd" d="M23.0104 3.7782C18.3509 3.26143 13.6485 3.26143 8.98903 3.7782C6.30636 4.0782 4.13969 6.19153 3.82503 8.88753C3.27317 13.6137 3.27317 18.388 3.82503 23.1142C4.13969 25.8102 6.30503 27.9235 8.98903 28.2235C13.6486 28.7392 18.3508 28.7392 23.0104 28.2235C25.693 27.9235 27.8597 25.8102 28.1744 23.1142C28.7262 18.388 28.7262 13.6137 28.1744 8.88753C27.8597 6.19153 25.6944 4.0782 23.0104 3.7782ZM9.21036 5.76487C13.7228 5.26448 18.2766 5.26448 22.789 5.76487C24.5624 5.96487 25.9824 7.36353 26.189 9.12087C26.7239 13.6919 26.7239 18.3098 26.189 22.8809C26.0821 23.7409 25.6884 24.5398 25.0715 25.1485C24.4546 25.7572 23.6504 26.1402 22.789 26.2355C18.2766 26.7359 13.7228 26.7359 9.21036 26.2355C8.34895 26.1402 7.54483 25.7572 6.9279 25.1485C6.31097 24.5398 5.91726 23.7409 5.81036 22.8809C5.2755 18.3098 5.2755 13.6919 5.81036 9.12087C5.91726 8.26081 6.31097 7.46191 6.9279 6.8532C7.54483 6.2445 8.34895 5.86021 9.21036 5.76487Z"/>
</mask>
<path fill-rule="evenodd" clip-rule="evenodd" d="M23.0104 3.7782C18.3509 3.26143 13.6485 3.26143 8.98903 3.7782C6.30636 4.0782 4.13969 6.19153 3.82503 8.88753C3.27317 13.6137 3.27317 18.388 3.82503 23.1142C4.13969 25.8102 6.30503 27.9235 8.98903 28.2235C13.6486 28.7392 18.3508 28.7392 23.0104 28.2235C25.693 27.9235 27.8597 25.8102 28.1744 23.1142C28.7262 18.388 28.7262 13.6137 28.1744 8.88753C27.8597 6.19153 25.6944 4.0782 23.0104 3.7782ZM9.21036 5.76487C13.7228 5.26448 18.2766 5.26448 22.789 5.76487C24.5624 5.96487 25.9824 7.36353 26.189 9.12087C26.7239 13.6919 26.7239 18.3098 26.189 22.8809C26.0821 23.7409 25.6884 24.5398 25.0715 25.1485C24.4546 25.7572 23.6504 26.1402 22.789 26.2355C18.2766 26.7359 13.7228 26.7359 9.21036 26.2355C8.34895 26.1402 7.54483 25.7572 6.9279 25.1485C6.31097 24.5398 5.91726 23.7409 5.81036 22.8809C5.2755 18.3098 5.2755 13.6919 5.81036 9.12087C5.91726 8.26081 6.31097 7.46191 6.9279 6.8532C7.54483 6.2445 8.34895 5.86021 9.21036 5.76487Z" fill="#00989E" stroke="#F2F6FB" stroke-width="0.8" mask="url(#path-3-inside-2_9_84)"/>
</svg>
