<svg width="32" height="32" viewBox="0 0 32 32" fill="none" xmlns="http://www.w3.org/2000/svg">
<path d="M27.3858 27.4954H22.5102C22.1653 27.4954 21.8866 27.2167 21.8866 26.8718V19.0199C21.8866 16.3269 20.4977 16.3269 20.0394 16.3269C18.8063 16.3269 18.2819 17.3002 18.1118 17.7207C18.0315 17.9097 17.9937 18.2309 17.9937 18.6798V26.8766C17.9937 27.2215 17.715 27.5002 17.3701 27.5002H12.4898C12.3244 27.5002 12.1638 27.4341 12.0457 27.316C11.9276 27.1979 11.8615 27.0372 11.8662 26.8718C11.8662 26.7396 11.9323 13.5726 11.8662 12.2262C11.8567 12.0561 11.9181 11.8908 12.0363 11.7679C12.1544 11.6451 12.315 11.5742 12.4898 11.5742H17.3701C17.715 11.5742 17.9937 11.8529 17.9937 12.1978V12.5663C18.8158 11.834 20.0016 11.2293 21.7685 11.2293C25.6756 11.2293 28.0094 13.9316 28.0094 18.4576V26.8718C28.0094 27.2167 27.7307 27.4954 27.3858 27.4954ZM23.1339 26.2482L26.767 26.2481V18.4576C26.767 14.6544 24.9481 12.4765 21.7732 12.4765C19.652 12.4765 18.6221 13.5347 17.9748 14.5033C17.8992 14.7584 17.6583 14.9474 17.3748 14.9474H17.3418C17.115 14.9474 16.9071 14.8245 16.7985 14.6261C16.7134 14.4702 16.6945 14.2907 16.7512 14.1253V12.8167H13.1276C13.1607 15.4198 13.1276 23.8435 13.1181 26.2435H16.7465V18.6749C16.7465 18.0466 16.8126 17.5931 16.9544 17.2482C17.5024 15.8923 18.6551 15.075 20.0347 15.075C22 15.075 23.1291 16.5112 23.1291 19.0151V26.2482H23.1339L23.1339 26.2482ZM9.79216 27.4953H4.91184C4.56695 27.4953 4.28823 27.2166 4.28823 26.8717V12.1978C4.28823 11.8529 4.56695 11.5741 4.91184 11.5741H9.79216C10.137 11.5741 10.4158 11.8529 10.4158 12.1977V26.8717C10.4158 27.2166 10.137 27.4954 9.79216 27.4954V27.4953ZM5.53548 26.2481H9.16853V12.8213H5.53551L5.53548 26.2481ZM7.35435 10.8182L7.32126 10.8182C5.39842 10.8182 4 9.4859 4 7.65283C4 5.82449 5.42205 4.49219 7.3874 4.49219C9.31968 4.49219 10.6992 5.78666 10.737 7.63865C10.737 9.4859 9.31499 10.8182 7.35435 10.8182ZM7.3874 5.74417C6.10708 5.74417 5.24725 6.51426 5.24725 7.65759C5.24725 8.78198 6.09766 9.57095 7.32128 9.57095H7.35433C8.62994 9.57095 9.48977 8.80087 9.48977 7.65756C9.46614 6.50008 8.63938 5.74417 7.3874 5.74417Z" fill="#131313"/>
</svg>
