<svg width="14" height="14" viewBox="0 0 14 14" fill="none" xmlns="http://www.w3.org/2000/svg">
<g clip-path="url(#clip0_9_227)">
<path d="M12.2783 0.165386L0.429646 4.98463C0.273965 5.04795 0.140586 5.16385 0.084404 5.32225C-0.215632 6.16815 0.348661 6.65306 0.768579 6.8318C0.836518 6.86071 0.910254 6.87101 0.984091 6.87101H6.33168C6.71828 6.87101 7.03168 7.18441 7.03168 7.57101V13.1558C7.03168 13.2848 7.06441 13.4138 7.14404 13.5153C7.60752 14.1062 8.2518 14.0522 8.65614 13.8959C8.7912 13.8437 8.88752 13.7315 8.94693 13.5995C10.4237 10.3169 13.3388 3.65685 13.8751 1.73002C14.4225 -0.236947 13.0387 -0.132638 12.2783 0.165386Z" fill="#7A7A7A"/>
</g>
<defs>
<clipPath id="clip0_9_227">
<rect width="14" height="14" fill="white"/>
</clipPath>
</defs>
</svg>
