<svg width="156" height="95" viewBox="0 0 156 95" fill="none" xmlns="http://www.w3.org/2000/svg">
<path d="M45.6853 31.5C46.9092 31.5 48.1331 31.5 49.3557 31.5C49.3557 33.2419 49.3582 34.9838 49.3557 36.7269C49.9244 35.9963 50.6686 35.3522 51.5909 35.1334C52.7826 34.8527 54.1734 35.1037 55.0351 36.0222C55.7769 36.8048 56.0402 37.9186 56.0402 38.9707C56.0414 41.327 56.0402 43.6833 56.0414 46.0396C54.8175 46.0396 53.5936 46.0384 52.371 46.0396C52.371 44.137 52.3685 42.2344 52.3722 40.3318C52.3734 39.8151 52.3042 39.2563 51.9544 38.8495C51.3931 38.1857 50.2199 38.2574 49.7155 38.9559C49.4176 39.3465 49.352 39.8534 49.3545 40.3306C49.357 42.2332 49.3557 44.1358 49.3557 46.0396C48.1331 46.0384 46.9092 46.0396 45.6853 46.0396C45.6853 41.1922 45.6853 36.3461 45.6853 31.5Z" fill="#1A4EA1"/>
<path d="M98.5635 31.5C99.7861 31.5 101.01 31.5 102.234 31.5C102.231 33.2419 102.238 34.9825 102.23 36.7244C102.804 35.9975 103.547 35.3497 104.469 35.1334C105.641 34.8577 107.003 35.095 107.869 35.9765C108.643 36.759 108.918 37.8964 108.918 38.9682C108.92 41.3245 108.918 43.6821 108.918 46.0396C107.694 46.0384 106.472 46.0384 105.248 46.0396C105.248 44.137 105.247 42.2356 105.249 40.333C105.252 39.82 105.184 39.2674 104.841 38.8607C104.291 38.1931 103.128 38.2512 102.612 38.9311C102.298 39.3255 102.228 39.8472 102.233 40.3355C102.235 42.2369 102.233 44.1382 102.234 46.0396C101.01 46.0396 99.7861 46.0396 98.5635 46.0396C98.5635 41.1922 98.5635 36.3461 98.5635 31.5Z" fill="#1A4EA1"/>
<path d="M123.138 31.5C124.361 31.5 125.584 31.5 126.808 31.5C126.808 36.3461 126.808 41.1935 126.808 46.0396C125.584 46.0396 124.361 46.0396 123.138 46.0396C123.138 41.1935 123.138 36.3461 123.138 31.5Z" fill="#1A4EA1"/>
<path d="M128.857 31.5C130.131 31.5 131.406 31.5 132.682 31.5C132.682 32.4297 132.682 33.3593 132.682 34.289C131.406 34.289 130.131 34.2878 128.857 34.289C128.856 33.3593 128.856 32.4297 128.857 31.5Z" fill="#1A4EA1"/>
<path d="M145.645 31.5C146.868 31.5 148.092 31.5 149.315 31.5C149.313 33.2431 149.32 34.985 149.312 36.7281C149.887 35.9913 150.639 35.341 151.572 35.1272C152.745 34.8601 154.107 35.1024 154.966 35.9926C155.727 36.7739 155.999 37.9001 156 38.9633C156.001 41.322 155.999 43.6808 156 46.0396C154.776 46.0396 153.552 46.0384 152.329 46.0396C152.329 44.1345 152.328 42.2295 152.331 40.3244C152.334 39.7965 152.254 39.2216 151.884 38.8174C151.322 38.198 150.212 38.266 149.702 38.92C149.382 39.3156 149.309 39.8422 149.314 40.3355C149.317 42.2369 149.315 44.1382 149.315 46.0396C148.092 46.0396 146.868 46.0396 145.645 46.0396C145.644 41.1922 145.644 36.3461 145.645 31.5Z" fill="#1A4EA1"/>
<path d="M75.7446 33.5879C76.5506 32.6075 77.7906 32.0784 79.0293 31.9239C81.3361 31.6568 83.7951 32.1983 85.6025 33.7041C84.9806 34.6152 84.3538 35.5238 83.7295 36.435C82.5786 35.6277 81.215 35.0244 79.7859 35.0701C79.3346 35.0874 78.7858 35.2481 78.625 35.7216C78.4767 36.142 78.7029 36.6167 79.1121 36.786C80.0863 37.2534 81.1804 37.3597 82.2015 37.6848C83.3253 38.0272 84.4948 38.4933 85.2514 39.4353C86.0079 40.3786 86.0883 41.689 85.8485 42.8326C85.6025 43.9934 84.8026 45.001 83.7555 45.5486C82.3276 46.3102 80.6401 46.3831 79.0651 46.1828C77.2602 45.9492 75.5109 45.2025 74.1584 43.9749C74.852 43.1157 75.5505 42.2614 76.244 41.4022C77.3529 42.301 78.7017 42.9488 80.1395 43.0514C80.7106 43.086 81.3485 43.112 81.8442 42.7757C82.2782 42.4852 82.3054 41.7533 81.869 41.4541C81.4486 41.1488 80.9344 41.019 80.4436 40.8793C79.0763 40.5282 77.6472 40.2525 76.4381 39.4848C75.6988 39.0237 75.1203 38.2906 74.9225 37.4338C74.6183 36.1185 74.8606 34.6362 75.7446 33.5879Z" fill="#1A4EA1"/>
<path d="M32.3928 32.0972C36.3476 32.0972 40.3011 32.0972 44.2559 32.0972C44.2559 33.2259 44.2559 34.3546 44.2559 35.4833C42.9035 35.4833 41.551 35.4833 40.1985 35.4833C40.1985 39.0017 40.1985 42.5213 40.1985 46.0397C38.9499 46.0384 37.7001 46.0397 36.4502 46.0397C36.4502 42.5213 36.4502 39.0017 36.4502 35.4833C35.0977 35.4833 33.7453 35.4833 32.3928 35.4833C32.3928 34.3546 32.3928 33.2259 32.3928 32.0972Z" fill="#1A4EA1"/>
<path d="M9.25764 32.6314C9.58277 32.2024 10.2244 32.1777 10.6781 32.4039C11.7536 32.9083 12.9516 33.0257 14.079 33.3707C14.6391 33.5227 14.9049 34.1643 15.4871 34.2682C15.9384 34.4054 16.4885 34.3077 16.8631 34.6366C16.8977 35.4661 16.0645 35.9445 16.0459 36.7568C15.5329 36.6665 15.0136 36.5701 14.4919 36.6183C14.1594 36.6381 13.943 36.9546 13.8392 37.2389C13.9616 37.7371 14.5117 38.0202 14.9976 37.9263C15.2733 37.9114 15.565 37.7532 15.8283 37.8966C15.8642 38.108 15.837 38.3256 15.764 38.5271C15.6577 38.8918 15.1929 38.8349 14.9073 38.9659C15.3722 39.7633 15.9532 40.4903 16.5466 41.1962C18.2094 40.735 19.4605 39.4889 20.8216 38.5036C21.1257 38.2452 21.5732 38.0561 21.6424 37.6172C21.7376 37.1969 21.818 36.6653 22.2927 36.5107C23.0876 36.2412 24.1446 36.2326 24.7393 36.915C25.0199 37.234 24.9927 37.679 24.9766 38.0746C24.6354 37.9522 24.2905 37.8101 23.9196 37.841C24.0989 38.1772 24.5464 38.1723 24.7541 38.4739C24.9346 38.6903 24.9729 38.9746 25.0088 39.2429C24.6441 39.1638 24.2633 39.0871 23.8986 39.212C24.4722 39.4357 25.0459 39.9055 25.0013 40.5842C24.67 40.5273 24.3474 40.4124 24.0099 40.4062C23.5042 40.4631 23.2891 41.0935 22.7736 41.1232C22.3879 41.1467 21.9799 41.1776 21.6795 41.4508C20.4408 42.4448 19.2614 43.5228 17.9263 44.3906C17.4763 44.7776 17.0782 44.1001 16.6096 44.0729C16.7395 44.4426 17.0868 44.6478 17.3786 44.8752C18.4591 45.6665 19.5606 46.4366 20.719 47.1116C21.0552 47.3094 21.5201 47.5258 21.8477 47.1895C22.4361 46.6691 23.3064 46.6208 24.0222 46.8743C24.3498 46.9979 24.6626 47.2229 24.8097 47.5493C24.9111 47.8942 24.8666 48.2601 24.8864 48.6162C24.5513 48.2638 24.084 47.8571 23.5895 48.2107C23.9542 48.4493 24.4067 48.5976 24.6502 48.9833C24.827 49.2467 24.9692 49.6089 24.7862 49.9068C24.3597 49.7276 23.8368 49.573 23.4597 49.9427C23.7601 50.0069 24.0754 50.0082 24.3696 50.1034C24.7838 50.3852 24.8851 50.9168 24.9074 51.3841C24.3375 51.3495 23.7639 51.3483 23.2001 51.258C22.8045 51.1888 22.4992 50.8946 22.1184 50.7858C21.8192 50.698 21.499 50.6955 21.2073 50.5818C20.9378 50.3964 20.7536 50.112 20.4804 49.9315C20.1218 49.688 19.7077 49.5483 19.3183 49.3666C18.3367 48.9178 17.3675 48.4456 16.4118 47.9461C15.9099 47.689 15.4439 47.3638 14.9209 47.1487C15.0495 47.6432 15.5131 47.9065 15.8778 48.2156C15.1682 49.84 13.7935 51.0602 12.3198 51.9887C11.8933 52.2705 11.4087 52.4844 11.0552 52.8639C11.0576 53.0827 11.2826 53.1804 11.4334 53.2954C13.1123 54.3264 14.6823 55.5379 16.1028 56.904C16.6059 57.4084 17.1969 57.9697 17.1944 58.7386C17.1845 60.1381 16.4971 61.4052 16.1683 62.7379C16.0385 63.0878 16.4094 63.3622 16.7271 63.3585C17.4651 63.4042 18.2526 63.5748 18.804 64.1027C19.2552 64.6331 19.4741 65.3588 19.4085 66.0511C18.8127 65.7816 18.1537 65.5664 17.789 64.978C17.8348 65.2969 17.8706 65.6184 17.8694 65.941C17.4231 65.7741 16.978 65.606 16.512 65.5059C16.2647 65.3365 16.0682 65.1029 15.8061 64.9545C15.8778 65.2636 15.9903 65.5603 16.0966 65.8594C15.5737 65.7 15.0396 65.5788 14.4919 65.5529C13.9826 65.5269 13.5734 65.1177 13.3991 64.6615C13.2186 64.1856 13.0393 63.7009 12.9664 63.1953C13.1321 62.5067 13.5054 61.8391 13.4176 61.1085C13.2483 60.3507 12.6215 59.7993 11.9786 59.421C11.4025 59.065 10.73 58.929 10.1255 58.6348C10.2627 58.0092 10.531 57.3985 10.4222 56.7433C10.0575 57.3899 9.85969 58.1329 9.3689 58.7028C8.78662 59.4012 8.06589 59.9773 7.27592 60.4249C6.97304 60.64 6.51439 60.7933 6.45505 61.2124C6.36356 61.8206 6.23994 62.456 6.36356 63.0655C6.82345 63.6527 7.66905 63.4994 8.30696 63.7059C8.69761 63.8308 8.92508 64.1979 9.01409 64.5787C9.1575 65.0361 9.26629 65.5022 9.3553 65.9732C8.80146 65.7976 8.14501 65.7346 7.75188 65.2574C7.65174 65.1523 7.5479 65.0522 7.44034 64.957C7.49103 65.3118 7.57015 65.6629 7.62331 66.0189C7.20545 65.7581 6.72826 65.6864 6.25106 65.6208C6.02977 65.4057 5.87524 65.1251 5.61192 64.9533C5.70093 65.3007 5.8431 65.6307 5.97167 65.9658C5.52662 65.8125 5.07168 65.6888 4.60066 65.6654C3.94174 65.6394 3.46084 64.9805 3.44353 64.3574C3.39779 63.3968 3.44229 62.435 3.45218 61.4744C3.47567 60.9589 3.44971 60.415 3.68213 59.939C4.08638 59.0947 4.47951 58.2095 4.53885 57.2638C4.46591 56.2463 3.97635 55.2833 4.09009 54.2461C3.00218 54.0544 1.79807 53.7899 1.07734 52.8751C0.671844 52.4152 0.661954 51.776 0.627339 51.1999C0.571708 49.798 0.629812 48.3862 0.901788 47.0078C1.09835 45.4909 1.09464 43.9555 1.1033 42.4275C1.15028 41.7648 0.654538 41.2666 0.433248 40.6843C0.0920416 39.8758 -0.147792 38.9511 0.106877 38.0845C0.2577 37.5801 0.780636 36.9966 1.35055 37.3081C2.38035 37.7878 2.69436 39.0438 2.614 40.0885C2.63131 40.6497 2.21098 41.1269 2.3037 41.6931C2.51263 43.4746 2.51139 45.277 2.34944 47.0622C2.20727 48.2762 2.02678 49.5013 2.1467 50.7252C2.18749 51.216 2.44711 51.6969 2.88227 51.9429C3.38666 52.2334 3.97635 52.3039 4.53391 52.4399C5.1236 51.844 5.76151 51.2988 6.46246 50.8377C7.26603 50.3086 7.8755 49.4927 8.12523 48.5618C8.40956 47.506 8.40215 46.3847 8.23526 45.3104C8.00655 43.8937 7.19062 42.6673 6.86301 41.2802C6.67634 40.3184 6.63801 39.3319 6.66521 38.354C6.68252 37.1882 7.25119 36.13 7.80874 35.1373C8.09432 34.6143 8.48869 34.1668 8.86451 33.7094C9.13896 33.4102 9.06231 32.9664 9.25764 32.6314Z" fill="#1A4EA1"/>
<path d="M59.4631 36.209C61.0344 34.8639 63.408 34.6834 65.2476 35.5575C66.6099 36.2102 67.505 37.5775 67.8388 39.0215C68.0576 39.8942 68.0798 40.8017 68.044 41.6979C65.705 41.7017 63.366 41.6893 61.0282 41.7029C61.1828 42.1467 61.367 42.6029 61.7317 42.9181C62.351 43.4831 63.277 43.5758 64.0632 43.3718C64.6752 43.2124 65.1771 42.8019 65.632 42.3804C66.3046 42.9602 66.9833 43.5325 67.657 44.1136C66.9054 45.0803 65.857 45.8357 64.6554 46.1176C62.8307 46.5502 60.7476 46.2276 59.3086 44.9678C58.1552 43.9751 57.5519 42.4558 57.5148 40.9537C57.427 39.1933 58.0884 37.3525 59.4631 36.209ZM61.791 38.1721C61.3064 38.5628 61.1098 39.1797 60.9701 39.7632C62.1916 39.7669 63.4142 39.7682 64.6369 39.762C64.5318 39.2403 64.3884 38.6889 63.9977 38.302C63.4365 37.711 62.4141 37.6406 61.791 38.1721Z" fill="#1A4EA1"/>
<path d="M88.796 36.6231C90.4464 34.964 93.1773 34.5832 95.2604 35.6019C96.0788 36.0099 96.7266 36.6873 97.2174 37.4489C96.3891 38.088 95.5584 38.7222 94.7301 39.3589C94.4507 39.0177 94.1639 38.6629 93.7633 38.4601C93.0525 38.093 92.1092 38.1597 91.5133 38.716C90.4897 39.6605 90.4576 41.4383 91.3576 42.4755C91.9547 43.1641 93.0302 43.2914 93.8177 42.8711C94.217 42.6646 94.5224 42.3259 94.8253 42.002C95.64 42.6152 96.4596 43.2209 97.2743 43.8354C96.6401 44.7823 95.7599 45.602 94.6645 45.9716C93.05 46.5205 91.1684 46.4031 89.7146 45.4734C88.2842 44.5821 87.3422 42.9935 87.179 41.3221C86.9862 39.621 87.5635 37.8272 88.796 36.6231Z" fill="#1A4EA1"/>
<path d="M135.651 36.8602C137.309 34.9663 140.309 34.5027 142.504 35.6895C143.249 36.0999 143.839 36.7391 144.297 37.4487C143.47 38.0891 142.638 38.722 141.811 39.3599C141.552 39.0435 141.29 38.7146 140.931 38.5094C140.218 38.0903 139.231 38.1348 138.611 38.7023C137.567 39.6455 137.533 41.4492 138.451 42.4877C139.052 43.1689 140.126 43.29 140.91 42.866C141.304 42.6583 141.606 42.322 141.906 42.0006C142.72 42.615 143.541 43.2208 144.355 43.834C143.905 44.4842 143.37 45.0925 142.694 45.5128C141.563 46.2261 140.161 46.4115 138.853 46.2348C137.217 46.0061 135.738 44.9577 134.949 43.5125C133.779 41.4369 134.04 38.633 135.651 36.8602Z" fill="#1A4EA1"/>
<path d="M110.734 35.2644C111.958 35.2644 113.181 35.2644 114.405 35.2644C114.406 37.2016 114.404 39.1388 114.406 41.0748C114.406 41.5681 114.501 42.0984 114.844 42.4767C115.409 43.1072 116.549 43.0454 117.049 42.363C117.36 41.9624 117.425 41.4383 117.42 40.9475C117.418 39.0523 117.42 37.1583 117.419 35.2644C118.643 35.2644 119.867 35.2644 121.091 35.2644C121.091 38.8557 121.091 42.447 121.091 46.0396C119.867 46.0396 118.643 46.0396 117.419 46.0396C117.419 45.5513 117.416 45.0642 117.423 44.5759C116.866 45.283 116.154 45.916 115.265 46.1484C114.067 46.4599 112.654 46.225 111.77 45.3127C111.002 44.5252 110.731 43.3854 110.734 42.3135C110.733 39.9634 110.736 37.6145 110.734 35.2644Z" fill="#1A4EA1"/>
<path d="M128.934 35.2644C130.158 35.2644 131.38 35.2644 132.606 35.2644C132.604 38.8557 132.606 42.4483 132.606 46.0396C131.38 46.0396 130.158 46.0396 128.934 46.0396C128.934 42.4483 128.934 38.8557 128.934 35.2644Z" fill="#1A4EA1"/>
<path d="M88.912 51.2146C90.1347 51.2146 91.3586 51.2146 92.5825 51.2146C92.5825 56.062 92.5825 60.9081 92.5825 65.7542C91.3586 65.7542 90.1347 65.7542 88.9108 65.7542C88.9108 65.2795 88.9083 64.8035 88.9158 64.33C88.4039 64.942 87.7994 65.5168 87.0292 65.7789C85.5408 66.3019 83.7952 65.8482 82.7011 64.7244C81.4735 63.5005 81.0247 61.6882 81.1162 59.997C81.1768 58.3972 81.7702 56.7345 83.0386 55.6985C84.3614 54.5846 86.4185 54.4004 87.8773 55.3548C88.2704 55.607 88.598 55.9445 88.9158 56.2845C88.9059 54.5945 88.9133 52.9046 88.912 51.2146ZM86.3802 57.9596C85.6038 58.1327 85.0067 58.7953 84.8052 59.5494C84.5283 60.5557 84.7743 61.7759 85.6421 62.425C86.3691 62.9936 87.4904 62.9516 88.1678 62.3211C89.0802 61.4904 89.205 60.0031 88.6116 58.9548C88.1864 58.1846 87.2419 57.7383 86.3802 57.9596Z" fill="#1A4EA1"/>
<path d="M114.358 51.2146C115.632 51.2146 116.908 51.2146 118.183 51.2146C118.183 52.1443 118.183 53.0739 118.183 54.0036C116.908 54.0036 115.632 54.0036 114.358 54.0036C114.358 53.0739 114.358 52.1443 114.358 51.2146Z" fill="#1A4EA1"/>
<path d="M32.3025 51.8115C35.9086 51.8115 39.516 51.8115 43.1222 51.8115C43.1222 52.9402 43.1222 54.0689 43.1222 55.1989C40.7647 55.1989 38.4084 55.1989 36.0508 55.1989C36.0508 55.9876 36.0508 56.7776 36.0508 57.5688C38.1821 57.5688 40.3134 57.5688 42.446 57.5688C42.4447 58.6369 42.446 59.7063 42.4447 60.7756C40.3134 60.7744 38.1821 60.7756 36.0508 60.7744C36.0508 62.4347 36.0508 64.095 36.0508 65.754C34.801 65.754 33.5523 65.754 32.3025 65.754C32.3025 61.1069 32.3025 56.4598 32.3025 51.8115Z" fill="#1A4EA1"/>
<path d="M106.668 52.2505C107.892 52.2505 109.116 52.2505 110.34 52.2505C110.339 53.1604 110.339 54.069 110.34 54.9789C111.151 54.9789 111.962 54.9789 112.774 54.9789C112.774 55.9951 112.774 57.0101 112.774 58.0263C111.962 58.0263 111.151 58.0263 110.34 58.0263C110.343 59.2563 110.334 60.4877 110.343 61.7177C110.34 62.0837 110.459 62.5188 110.836 62.661C111.47 62.881 112.145 62.6437 112.738 62.4051C112.73 63.3941 112.738 64.3831 112.733 65.3733C111.615 65.9581 110.297 66.1027 109.064 65.8691C108.36 65.7331 107.676 65.3684 107.267 64.7651C106.804 64.0963 106.678 63.2606 106.67 62.4632C106.666 60.9846 106.67 59.5061 106.668 58.0263C106.255 58.0263 105.844 58.0263 105.432 58.0263C105.432 57.0101 105.432 55.9951 105.432 54.9789C105.844 54.9789 106.255 54.9789 106.668 54.9789C106.668 54.069 106.668 53.1604 106.668 52.2505Z" fill="#1A4EA1"/>
<path d="M48.4235 54.869C50.0714 54.5303 51.8751 54.8592 53.2301 55.8766C54.5294 56.8322 55.3564 58.385 55.4392 59.9946C55.553 61.6103 54.9361 63.2645 53.7666 64.3894C52.5835 65.5565 50.8775 66.119 49.2308 65.999C47.5816 65.9076 45.9708 65.0879 44.9892 63.7491C43.9396 62.357 43.6355 60.4643 44.1201 58.7979C44.6702 56.8161 46.4096 55.2548 48.4235 54.869ZM48.9131 58.0722C47.0797 58.7323 46.9932 61.6462 48.6683 62.5437C49.4632 62.9937 50.556 62.8602 51.1927 62.1951C52.1656 61.1913 52.0989 59.3702 51.0332 58.4567C50.4646 57.9535 49.6214 57.8175 48.9131 58.0722Z" fill="#1A4EA1"/>
<path d="M75.1178 54.8605C76.3158 54.5588 77.7239 54.8122 78.5929 55.737C79.3199 56.5034 79.5894 57.5901 79.598 58.6211C79.6017 60.9985 79.598 63.377 79.5993 65.7543C78.3754 65.7543 77.1527 65.7543 75.9288 65.7543C75.9288 63.8295 75.9288 61.9046 75.9288 59.9798C75.9288 59.484 75.8448 58.9537 75.5134 58.5655C74.9707 57.9214 73.847 57.9672 73.3216 58.6112C73.0001 58.9908 72.9136 59.5051 72.9148 59.9884C72.9148 61.9108 72.9148 63.832 72.9148 65.7543C71.6909 65.7543 70.4683 65.7543 69.2444 65.7543C69.2444 62.163 69.2444 58.5717 69.2444 54.9791C70.467 54.9791 71.6909 54.9791 72.9148 54.9791C72.9148 55.4811 72.9161 55.9817 72.9124 56.4824C73.4798 55.7567 74.2042 55.099 75.1178 54.8605Z" fill="#1A4EA1"/>
<path d="M94.9191 55.6514C96.6412 54.9146 98.5599 54.6723 100.416 54.9023C101.502 55.0382 102.605 55.4746 103.317 56.3388C104.054 57.2054 104.245 58.3873 104.25 59.4912C104.253 61.5793 104.25 63.6673 104.252 65.7541C103.04 65.7541 101.83 65.7541 100.618 65.7541C100.618 65.3869 100.618 65.021 100.624 64.6538C100.069 65.2411 99.3721 65.7133 98.5735 65.8802C97.3422 66.1485 95.918 65.963 94.9723 65.0717C94.0302 64.1791 93.8436 62.7253 94.1885 61.5212C94.4654 60.5519 95.2949 59.8238 96.2382 59.5246C97.6722 59.0585 99.2386 59.2094 100.659 59.6532C100.633 59.1537 100.573 58.5987 100.182 58.2389C99.6231 57.7147 98.7948 57.6999 98.0753 57.7419C97.2445 57.784 96.4397 58.0164 95.672 58.3205C95.4223 57.4304 95.1688 56.5415 94.9191 55.6514ZM98.1729 61.3295C97.4126 61.7301 97.3347 62.9973 98.1 63.4324C98.8986 63.8589 100.051 63.5573 100.472 62.7327C100.707 62.3074 100.674 61.8067 100.684 61.3394C99.8851 61.0724 98.9468 60.9055 98.1729 61.3295Z" fill="#1A4EA1"/>
<path d="M124.206 54.8788C125.68 54.5673 127.279 54.7787 128.58 55.5551C129.666 56.1954 130.517 57.2215 130.945 58.4071C131.515 59.9821 131.361 61.8117 130.496 63.2507C129.793 64.445 128.624 65.3462 127.299 65.7455C125.689 66.2326 123.867 66.0583 122.417 65.1892C121.393 64.5822 120.579 63.6327 120.136 62.5288C119.455 60.8487 119.631 58.8398 120.628 57.3204C121.431 56.0693 122.755 55.1817 124.206 54.8788ZM124.705 58.0869C123.017 58.7397 122.839 61.3321 124.241 62.3742C125.014 62.985 126.222 62.9466 126.945 62.2716C128.015 61.2777 127.957 59.3405 126.821 58.4195C126.243 57.9373 125.404 57.8199 124.705 58.0869Z" fill="#1A4EA1"/>
<path d="M136.497 56.4798C137.074 55.7405 137.821 55.073 138.755 54.8467C139.932 54.5698 141.299 54.822 142.157 55.7171C142.898 56.4848 143.174 57.5838 143.181 58.626C143.185 61.002 143.181 63.3781 143.182 65.7542C141.958 65.7542 140.736 65.7542 139.512 65.7542C139.512 63.8343 139.512 61.9132 139.513 59.992C139.511 59.4839 139.43 58.935 139.078 58.5444C138.504 57.8941 137.336 57.9831 136.845 58.6878C136.571 59.0599 136.497 59.5334 136.498 59.9858C136.498 61.9082 136.499 63.8318 136.498 65.7542C135.274 65.7542 134.051 65.7542 132.827 65.7542C132.827 62.1629 132.827 58.5716 132.827 54.979C134.051 54.979 135.274 54.979 136.498 54.979C136.498 55.4797 136.499 55.9791 136.497 56.4798Z" fill="#1A4EA1"/>
<path d="M114.436 54.979C115.658 54.979 116.882 54.979 118.106 54.979C118.106 58.5716 118.106 62.1629 118.106 65.7542C116.882 65.7542 115.658 65.7542 114.435 65.7542C114.436 62.1629 114.436 58.5716 114.436 54.979Z" fill="#1A4EA1"/>
<path d="M56.919 54.979C58.1417 54.979 59.3656 54.979 60.5895 54.979C60.5895 56.8977 60.5895 58.8151 60.5882 60.7325C60.5882 61.2394 60.6673 61.7871 61.016 62.179C61.5748 62.8169 62.7133 62.7662 63.2227 62.0924C63.5268 61.7104 63.6035 61.2073 63.6035 60.7325C63.6022 58.8151 63.6022 56.8964 63.6035 54.979C64.8261 54.979 66.05 54.979 67.2739 54.979C67.2739 58.5716 67.2739 62.1629 67.2739 65.7542C66.05 65.7542 64.8261 65.7542 63.6035 65.7542C63.6022 65.2671 63.6022 64.78 63.6035 64.2929C63.0422 65.01 62.3165 65.6466 61.4153 65.8741C60.2173 66.1721 58.8117 65.9285 57.9365 65.01C57.1972 64.2386 56.9252 63.1371 56.9203 62.0949C56.9165 59.7225 56.919 57.3514 56.919 54.979Z" fill="#1A4EA1"/>
</svg>
