<svg width="66" height="36" viewBox="0 0 66 36" fill="none" xmlns="http://www.w3.org/2000/svg">
<path d="M51.8359 0.0703125H51.917C52.0047 0.12109 52.1016 0.16065 52.2022 0.184858C52.8829 0.347229 53.5648 0.505466 54.246 0.666656C53.8743 0.851464 53.5288 1.07996 53.1997 1.32854C52.9225 1.10771 52.6732 0.856778 52.4081 0.622964C52.2095 0.446422 51.9974 0.281099 51.8359 0.0703125Z" fill="white"/>
<path d="M2.08193 1.28898C3.54262 -0.0288817 5.8863 -0.232583 7.61938 0.683779C8.29701 1.05162 8.82291 1.63261 9.2318 2.26379C8.85155 2.60448 8.4518 2.92332 8.06606 3.2581C7.8741 2.95992 7.6596 2.67415 7.40854 2.41967C6.95637 1.96621 6.34151 1.66863 5.69374 1.59837C4.80038 1.49504 3.84731 1.70111 3.13555 2.24903C2.39759 2.83003 2.01612 3.76292 2.01551 4.6722C1.98992 5.47342 2.14165 6.34314 2.73031 6.94598C3.3982 7.69584 4.38174 8.05778 5.31287 8.39728C6.1136 8.62696 6.89239 8.9393 7.59501 9.37977C8.22511 9.78836 8.72785 10.3729 9.05813 11.0324C9.40913 11.8354 9.47617 12.7258 9.44265 13.5884C9.4006 14.5715 9.09652 15.5558 8.4847 16.3493C7.85338 17.2078 6.85095 17.78 5.78636 17.9659C4.65962 18.1313 3.47681 17.9819 2.44878 17.4971C1.54629 17.0945 0.847326 16.3617 0.333008 15.5522V15.4058C0.745559 15.087 1.14166 14.7475 1.57127 14.4499C1.79552 14.8968 2.07096 15.3267 2.44817 15.6674C3.63342 16.8134 5.76199 16.9096 7.00573 15.8002C7.89543 15.0415 8.22389 13.8134 8.0685 12.701C7.99598 12.0338 7.64802 11.402 7.12395 10.9651C6.59623 10.5518 5.98015 10.2589 5.347 10.0298C4.5286 9.71396 3.69862 9.41815 2.92288 9.01016C2.3202 8.6742 1.77359 8.22546 1.40186 7.65097C0.74434 6.67438 0.610276 5.46221 0.680965 4.32325C0.752262 3.19315 1.22331 2.07072 2.08193 1.28898Z" fill="white"/>
<path d="M59.2988 0.672154C60.1075 0.481442 60.9161 0.29014 61.7248 0.0976562C61.258 0.504469 60.8168 0.937852 60.3433 1.33699C60.0185 1.08251 59.6657 0.864637 59.2988 0.672154Z" fill="white"/>
<path d="M10.7786 0.570131C14.5122 0.568359 18.2465 0.571312 21.9802 0.568359C21.9863 1.05134 21.9833 1.53491 21.982 2.01789C20.3416 2.01789 18.7005 2.01848 17.0595 2.0173C17.0485 7.21434 17.0588 12.4114 17.0546 17.6084C16.6042 17.6043 16.1539 17.645 15.7048 17.6078C15.7085 12.4114 15.7054 7.21435 15.7066 2.01789C14.0631 2.01848 12.4202 2.01789 10.7773 2.01789C10.7792 1.5355 10.7773 1.05252 10.7786 0.570131Z" fill="white"/>
<path d="M24.1982 0.56895C27.1434 0.568359 30.0879 0.568359 33.0331 0.568359C33.0331 1.05134 33.0331 1.53373 33.0331 2.01671C30.5395 2.01789 28.0459 2.01494 25.5523 2.01789C25.5492 4.03601 25.5523 6.05413 25.5511 8.07225C27.888 8.07344 30.2256 8.07284 32.5626 8.07225C32.5632 8.55701 32.5626 9.04176 32.5632 9.52651C30.2256 9.52887 27.888 9.52296 25.5505 9.52946C25.5517 11.7395 25.5505 13.9501 25.5511 16.1607C28.1525 16.163 30.7534 16.1613 33.3548 16.1613C33.353 16.6484 33.3597 17.1349 33.3505 17.622C32.2567 17.5966 31.1629 17.6386 30.069 17.6173C28.9112 17.6002 27.754 17.6338 26.5962 17.609C26.1897 17.6132 25.7832 17.6049 25.3774 17.6226C24.9856 17.6155 24.5931 17.5925 24.2013 17.6256C24.1952 11.9402 24.2019 6.25429 24.1982 0.56895Z" fill="white"/>
<path d="M36.1406 0.569862C36.814 0.568681 37.488 0.56691 38.1619 0.570452C39.9164 5.33058 41.6635 10.0931 43.4173 14.8532C45.1631 10.0907 46.92 5.33235 48.6677 0.570452C49.3081 0.56691 49.9492 0.569271 50.5903 0.569271C50.5921 6.24812 50.5897 11.9264 50.5915 17.6046C50.1418 17.6353 49.6914 17.6147 49.2417 17.6135C49.2435 14.2474 49.2417 10.8819 49.2423 7.51638C49.2368 5.86433 49.2533 4.21228 49.2344 2.56023C48.7487 3.79248 48.3191 5.04421 47.856 6.28414C46.4666 10.0635 45.093 13.8483 43.6933 17.6241C43.4977 17.6229 43.3027 17.6229 43.1083 17.6229C41.3429 12.8599 39.566 8.10151 37.8006 3.33902C37.7037 3.08041 37.6147 2.81885 37.4971 2.56791C37.4764 7.58605 37.4983 12.6042 37.4861 17.6223C37.0376 17.6176 36.5885 17.6342 36.1406 17.6046C36.1406 11.9264 36.1412 6.24812 36.1406 0.569862Z" fill="white"/>
<path d="M53.5635 1.67505C54.4934 0.948218 55.6896 0.536092 56.887 0.570337C58.0107 0.583917 59.1082 1.00077 59.9864 1.67151C58.9151 2.70714 57.8493 3.74867 56.7755 4.78253C55.7024 3.74926 54.636 2.70891 53.5635 1.67505Z" fill="white"/>
<path d="M54.1012 3.83821C54.5833 3.69355 55.1561 3.95984 55.3054 4.43337C55.4876 4.90927 55.2134 5.49439 54.7063 5.64554C54.1658 5.84866 53.5022 5.47963 53.4236 4.92108C53.3291 4.46171 53.6296 3.96161 54.1012 3.83821Z" fill="white"/>
<path d="M58.8646 3.83165C59.4454 3.64153 60.1145 4.08554 60.1376 4.67834C60.1949 5.23749 59.6465 5.74645 59.0755 5.68682C58.5825 5.65906 58.1553 5.21683 58.1779 4.73562C58.1687 4.33294 58.4685 3.94679 58.8646 3.83165Z" fill="white"/>
<path d="M55.7129 6.06289C56.4155 6.06289 57.1175 6.0617 57.8201 6.06348C57.4777 6.41302 57.1175 6.74602 56.7683 7.08848C56.41 6.75252 56.0627 6.40652 55.7129 6.06289Z" fill="white"/>
<path d="M57.3479 8.94678C57.7665 7.96488 58.5045 7.11406 59.4344 6.55078C61.2711 9.39493 63.0974 12.2456 64.9262 15.0944V15.2409C64.3271 15.5851 63.658 15.8148 62.9688 15.9134C61.9981 16.0545 60.9993 15.9045 60.0962 15.5414C59.4716 15.7416 58.8232 15.8915 58.162 15.8957C57.0895 15.9004 56.003 15.6388 55.0944 15.0785C54.1986 14.5506 53.4741 13.7642 53.0054 12.8579C52.3863 11.6374 52.251 10.192 52.6551 8.88833C52.9092 8.00976 53.4174 7.20912 54.0773 6.56259C54.421 6.88674 54.7562 7.21916 55.0956 7.54803C54.538 8.94501 54.5618 10.5481 55.1688 11.9261C55.9616 13.8244 57.861 15.2202 59.9536 15.4818C59.3522 15.1795 58.7793 14.8039 58.3302 14.3074C57.794 13.7506 57.4076 13.0645 57.1761 12.3389C56.8281 11.233 56.9018 10.0161 57.3479 8.94678Z" fill="white"/>
<path d="M57.5482 16.2949C58.1393 16.3634 58.7389 16.3067 59.3203 16.1934C59.951 16.6545 60.5732 17.1257 61.2033 17.588C60.3891 17.6441 59.5744 17.575 58.7609 17.6051C58.5147 17.4333 58.33 17.19 58.1003 16.9975C57.8949 17.1776 57.7133 17.3813 57.5098 17.562C57.4391 17.6275 57.3343 17.6045 57.2484 17.6122C56.2715 17.6128 55.2953 17.5844 54.3191 17.5986C53.9352 17.6216 53.5519 17.588 53.168 17.588C54.4733 17.1717 55.7688 16.7289 57.0711 16.305C57.2234 16.24 57.3892 16.2825 57.5482 16.2949Z" fill="white"/>
<path d="M16.0869 19.7545C16.4117 19.7539 16.7371 19.7545 17.0619 19.7539C17.0613 23.6904 17.0619 27.6268 17.0619 31.5633C16.7365 31.5633 16.4117 31.5633 16.0869 31.5633C16.0869 27.6268 16.0869 23.691 16.0869 19.7545Z" fill="white"/>
<path d="M18.9668 19.7555C19.291 19.7532 19.6152 19.7538 19.9394 19.7549C19.9363 23.6908 19.94 27.6273 19.9369 31.5637C19.614 31.5626 19.2904 31.5643 18.9668 31.562C18.9668 27.6261 18.9674 23.6908 18.9668 19.7555Z" fill="white"/>
<path d="M46.46 19.7569C46.789 19.7533 47.1187 19.7521 47.4484 19.758C47.424 21.7183 47.4508 23.6786 47.4331 25.6394C47.7415 25.0868 48.232 24.6292 48.8298 24.3812C49.4831 24.1149 50.2217 24.1131 50.9078 24.2466C51.5928 24.3847 52.2003 24.834 52.505 25.4457C52.8554 26.1413 52.8579 26.9372 52.8566 27.6941C52.856 28.9837 52.8566 30.2738 52.856 31.5633C52.5331 31.5633 52.2101 31.5639 51.8877 31.5627C51.8755 30.3907 51.9066 29.2192 51.8853 28.0478C51.8737 27.3812 51.9334 26.6898 51.6836 26.0539C51.5251 25.6418 51.2077 25.2639 50.7659 25.1234C50.1778 24.9303 49.5252 24.9952 48.9536 25.2096C48.4094 25.4322 47.9743 25.8779 47.75 26.4052C47.5398 26.8463 47.4575 27.3334 47.4435 27.8169C47.4301 29.0645 47.4368 30.3127 47.4465 31.5609C47.1175 31.5651 46.7884 31.5645 46.46 31.5615C46.4721 27.6262 46.4715 23.691 46.46 19.7569Z" fill="white"/>
<path d="M0.333008 20.5134C2.59564 20.5134 4.85827 20.5134 7.1203 20.5134C7.11969 20.827 7.1203 21.1405 7.11969 21.4546C5.19526 21.454 3.27023 21.4546 1.34519 21.454C1.34763 22.763 1.3458 24.0714 1.34641 25.3804C3.13494 25.381 4.92348 25.3804 6.71201 25.3804C6.71262 25.6981 6.71262 26.0151 6.71201 26.3328C4.92348 26.3334 3.13494 26.3334 1.34641 26.3328C1.3458 28.0793 1.34702 29.8264 1.3458 31.573C1.0082 31.573 0.670605 31.573 0.333008 31.573V20.5134Z" fill="white"/>
<path d="M54.8342 20.8303C55.0768 20.7725 55.3644 20.7908 55.5551 20.9649C55.8909 21.2271 55.8927 21.7898 55.5478 22.0449C55.2017 22.3436 54.5691 22.2155 54.4046 21.7874C54.2395 21.4255 54.4339 20.9466 54.8342 20.8303Z" fill="white"/>
<path d="M10.5736 24.2335C11.3688 24.1119 12.2159 24.1792 12.9417 24.5346C13.7759 24.9444 14.4011 25.7108 14.6376 26.5852C14.81 27.1131 14.7686 27.6716 14.7728 28.2166C12.6863 28.2137 10.5992 28.2148 8.51206 28.216C8.55289 29.0928 8.97031 29.9744 9.73326 30.475C10.1933 30.8228 10.7954 30.9214 11.3652 30.9179C12.3347 30.9114 13.3103 30.4491 13.8374 29.6473C14.0781 29.8315 14.3073 30.0293 14.5492 30.2117C14.1178 30.9037 13.3963 31.4168 12.5858 31.6087C11.3914 31.9193 10.0081 31.8136 9.00322 31.0655C8.24454 30.527 7.76739 29.672 7.61261 28.7823C7.44259 27.8086 7.56447 26.7606 8.09585 25.9039C8.61565 25.0318 9.54618 24.3977 10.5736 24.2335ZM9.68146 25.49C9.04953 25.9287 8.63211 26.6295 8.51023 27.3699C10.2732 27.3693 12.0361 27.3705 13.7991 27.3693C13.8161 26.326 12.9831 25.3813 11.9581 25.1257C11.1982 24.9296 10.3152 25.0082 9.68146 25.49Z" fill="white"/>
<path d="M24.5007 24.2233C25.5275 24.0858 26.6324 24.2505 27.491 24.8398C28.126 25.2548 28.6025 25.8801 28.8621 26.5757C29.1284 27.3267 29.1668 28.1492 28.9925 28.9244C28.7975 29.8 28.2564 30.6084 27.4861 31.1102C26.5318 31.7579 25.2814 31.9038 24.1607 31.6599C23.2698 31.4733 22.4563 30.952 21.945 30.2193C21.3289 29.3596 21.1473 28.2543 21.324 27.2328C21.4825 26.2852 22.0267 25.3942 22.8457 24.8451C23.3338 24.5079 23.9115 24.3119 24.5007 24.2233ZM24.658 25.0653C23.8475 25.1781 23.1022 25.6552 22.6775 26.333C22.2393 27.0391 22.1479 27.9136 22.3161 28.7119C22.4624 29.4623 22.9553 30.139 23.6342 30.5269C24.2594 30.8971 25.0315 30.9851 25.7463 30.8723C26.6214 30.743 27.413 30.1767 27.7987 29.4056C28.1314 28.7573 28.1942 28.0004 28.0607 27.2948C27.9182 26.565 27.48 25.8848 26.8298 25.4833C26.1985 25.0736 25.4002 24.9561 24.658 25.0653Z" fill="white"/>
<path d="M41.352 24.4226C42.1771 24.0925 43.1307 24.1073 43.965 24.4001C44.5354 24.5891 44.982 25.0301 45.2599 25.5391C44.968 25.7068 44.6767 25.8739 44.3861 26.0427C44.1697 25.7044 43.9071 25.3661 43.5232 25.1966C42.8986 24.9356 42.1442 24.9793 41.5646 25.3283C41.2557 25.5261 41.0144 25.8674 41.0515 26.2393C41.0454 26.5281 41.2039 26.8115 41.4647 26.955C42.1435 27.3659 42.965 27.409 43.7249 27.5879C44.3324 27.732 44.9333 28.0508 45.2593 28.5863C45.475 29.0073 45.4891 29.5027 45.4239 29.9609C45.3324 30.6517 44.7937 31.2238 44.1527 31.5007C43.2557 31.8792 42.2167 31.8391 41.3026 31.5379C40.6554 31.326 40.0814 30.8843 39.7627 30.2945C40.0461 30.1079 40.3343 29.929 40.6152 29.7401C41.1588 30.7338 42.5171 31.1784 43.5829 30.7627C43.9577 30.6068 44.2922 30.3199 44.4348 29.9432C44.5597 29.5547 44.4811 29.0587 44.11 28.8201C43.4056 28.3248 42.4982 28.3242 41.6938 28.0845C41.1856 27.9304 40.6731 27.6865 40.3514 27.2608C40.0619 26.8682 40.04 26.3551 40.0997 25.8928C40.2051 25.2297 40.7261 24.6788 41.352 24.4226Z" fill="white"/>
<path d="M60.4543 24.221C61.5329 24.0746 62.6992 24.2942 63.5603 24.9655C64.2934 25.5023 64.762 26.3336 64.9302 27.2009V28.739C64.7681 29.5834 64.3232 30.3946 63.6224 30.9319C62.7138 31.6706 61.4445 31.9044 60.294 31.6977C59.4 31.5501 58.5469 31.0642 58.0685 30.3043C58.0649 31.918 58.0679 33.5311 58.0673 35.1441C57.7486 35.143 57.4305 35.1424 57.113 35.1518H57.0874C57.0807 31.5578 57.0862 27.9632 57.0844 24.3692C57.4122 24.3686 57.7401 24.3692 58.0679 24.3692C58.0661 24.7943 58.0679 25.22 58.0667 25.6451C58.5719 24.8339 59.5018 24.3474 60.4543 24.221ZM60.553 25.0653C59.6145 25.2064 58.7547 25.7951 58.3172 26.6141C57.9387 27.2842 57.862 28.1043 58.0978 28.8323C58.2983 29.434 58.6901 29.9784 59.2264 30.3445C59.9588 30.877 60.9399 31.0335 61.8242 30.8363C62.4543 30.704 63.0191 30.3338 63.4152 29.8455C64.0429 29.0183 64.1758 27.8918 63.8522 26.924C63.6639 26.3678 63.3031 25.8612 62.7979 25.533C62.1581 25.083 61.3238 24.9508 60.553 25.0653Z" fill="white"/>
<path d="M29.2041 24.36C29.563 24.3594 29.922 24.36 30.2809 24.3594C30.8793 26.3822 31.4844 28.4027 32.0907 30.4232C32.797 28.4051 33.4844 26.3799 34.1834 24.3594C34.4941 24.3606 34.8043 24.3588 35.1151 24.3611C35.8488 26.3834 36.5941 28.4015 37.3278 30.4232C37.9329 28.4062 38.5057 26.3805 39.0968 24.36C39.4228 24.3594 39.7494 24.3594 40.0761 24.3606C39.3479 26.7636 38.6081 29.1644 37.889 31.5704C37.5508 31.5704 37.2126 31.5704 36.875 31.5704C36.1315 29.5972 35.3881 27.6245 34.6428 25.6524C33.9317 27.6198 33.2492 29.5972 32.552 31.5692C32.212 31.571 31.872 31.5722 31.5319 31.5681C31.2041 30.4751 30.8208 29.3988 30.4862 28.3076C30.0536 26.9933 29.6343 25.6749 29.2041 24.36Z" fill="white"/>
<path d="M54.5852 24.3603C54.91 24.3591 55.2348 24.3591 55.5596 24.3603C55.5596 26.7633 55.5602 29.167 55.5596 31.5701C55.2342 31.5701 54.9088 31.5707 54.584 31.5695C54.5852 29.1664 54.5834 26.7633 54.5852 24.3603Z" fill="white"/>
</svg>
